<?xml version="1.0" encoding="utf-8"?>
<!-- Generator: Adobe Illustrator 26.1.0, SVG Export Plug-In . SVG Version: 6.00 Build 0)  -->
<svg version="1.1" id="Layer_1" xmlns="http://www.w3.org/2000/svg" xmlns:xlink="http://www.w3.org/1999/xlink" x="0px" y="0px"
	 viewBox="0 0 1000 500" style="enable-background:new 0 0 1000 500;" xml:space="preserve">
<style type="text/css">
	.st0{fill:#091B32;}
</style>
<g>
	<g>
		<path class="st0" d="M581.6,429.8c2.2-0.2,3.4-1.5,3.4-3.4v-17.6c0-2.5,0-3-3.5-3.8v-1.3h4c4.4,0,5.5-0.2,5.5-0.2l0.2,0.2
			c0,0-1.4,1.9-1.4,6.3v16.8c0,1.3-0.2,2.3-0.2,2.3h6.3c3.5,0,4.4-1.5,6.6-5.8h1.8l-1.8,7.8h-13.7c-2.6,0-7.3,0.2-7.3,0.2V429.8z"/>
		<path class="st0" d="M616.7,429.8c2-0.2,2.7-1.3,3.1-2.3l9.8-23.5l2.3-0.5l9,22.5c1.3,3.5,2.2,3.7,3.7,3.9l-0.2,1.4h-2.2
			c-1.8,0-7.5,0.2-7.5,0.2v-1.8c1.3,0,2.5-0.5,1.9-2l-2.1-5.2h-9.6l-0.7,0.5l-2.5,6.2l4.1,0.6l-0.2,1.4h-8.7V429.8z M629.6,409.4
			l-4.4,10.9h8.4l-2.9-7.4C630.3,411.8,629.9,410.5,629.6,409.4z"/>
		<path class="st0" d="M667.6,431.1l-9.8-23.9c-0.8-1.9-2.7-2.2-2.7-2.2v-1.3h2.7c2.6,0,5.4-0.2,5.4-0.2l0.2,0.2c0,0-1,2.1-0.3,3.8
			l5.4,13.5l1.1,3.5l5.7-15.1l-0.9-2.3c-0.8-1.9-2.7-2.2-2.7-2.2v-1.3h2.7c2.6,0,5.4-0.2,5.4-0.2l0.2,0.2c0,0-0.9,2.1-0.3,3.8
			l5.1,13.4c0.3,1,0.7,2.5,1,3.6l5.7-15c0.9-2.5,0.2-3.8-2.1-4.5v-1.3h7.5l0.2,0.7c0,0-1.8,1-3.4,5.5l-8.2,21.8l-1.6-0.7l-7.4-18.5
			l-7.2,19.2L667.6,431.1z"/>
		<path class="st0" d="M727,429.8c2.1-0.2,3.4-1.5,3.4-3.3v-18.5c0-2-0.2-2.4-3.4-3v-1.2h18.1c1.7,0,3.2-0.2,3.2-0.2l-1.3,7.2h-1.8
			c0.2-4.3-1.2-5-4.6-5h-4.7l-0.5,0.5v10.2h7.1l0.3-2.3l2-0.3v7.8h-2.5v-3.1h-6.5l-0.5,0.5v7.5c0,1.5-0.3,2.7-0.3,2.7l5.4,0.4
			l-0.2,1.5l-13.3,0.3V429.8z"/>
		<path class="st0" d="M763.7,429.8c2.2-0.2,3.4-1.5,3.4-3.4v-17.6c0-2.5,0-3-3.5-3.8v-1.3h4c4.4,0,5.5-0.2,5.5-0.2l0.2,0.2
			c0,0-1.4,1.9-1.4,6.3v16.3c0,1.5-0.2,2.7-0.2,2.7l4.3,0.5l-0.2,1.4l-12.2,0.3V429.8z"/>
		<path class="st0" d="M791.9,429.8c2.2-0.2,3.4-1.5,3.4-3.4v-17.6c0-2.5,0-3-3.5-3.8v-1.3h10.7c8.1,0,11,3.2,11,6.6
			c0,3.6-3.3,6-5.4,7.3v0.7l6.2,8.8c1.6,2.3,2.6,2.3,4,2.4l-0.2,1.7h-7.4l-0.2-0.2c0,0-0.6-1.8-2.5-4.5l-5-7.1h-2.4l-0.6,0.6v6.4
			c0,1.5-0.2,2.7-0.2,2.7l4.3,0.5l-0.2,1.4l-12.2,0.3V429.8z M803.5,417.4c2.3,0,5-1.9,5-5.8c0-3.2-1.8-5.8-6.5-5.8h-1.2l-0.6,0.6
			v11H803.5z"/>
		<path class="st0" d="M832.4,429.8c2.1-0.2,3.3-1.3,3.4-3.2l0.7-17.9c0.1-2.1,0.1-2.9-3.6-3.7v-1.3h3.6c3.9,0,6.1-0.2,6.1-0.2
			l0.2,0.2c0,0,0.4,1.7,1.3,3.8l5.2,13.5c0.3,1,0.8,2.4,1.1,3.4l7.6-18c0.3-0.9,1-2.8,1-2.8h1.7c3.6,0,5.1-0.2,5.1-0.2l0.2,0.2
			c0,0-1.5,1.7-1.4,5.2l0.7,17.8c0.1,1.6-0.2,2.6-0.2,2.6l4.3,0.3l-0.2,1.5l-12.2,0.3v-1.7c2.1-0.2,3.5-1.3,3.4-3l-0.8-18.6
			l-9.9,23.1l-1.6-0.5l-9.3-23.5c-0.1,0.6-0.1,1.2-0.1,1.6l-0.7,17.7c-0.1,1.5-0.3,2.8-0.3,2.8l4.5,0.3l-0.2,1.5l-9.6,0.3V429.8z"/>
	</g>
	<g>
		<polygon class="st0" points="560.7,399.4 81.1,399.4 81.1,99.4 111.6,99.4 111.6,64.9 47.6,64.9 47.6,433.9 560.7,433.9 		"/>
		<polygon class="st0" points="266.2,64.9 266.2,99.4 919.1,99.4 919.1,399.4 887.8,399.4 887.8,433.9 952.6,433.9 952.6,64.9 		"/>
	</g>
	<g>
		<path class="st0" d="M138.3,94.9c2.1-0.2,3.4-1.5,3.4-3.3V70.9H138c-2.8,0-4.1,0.8-5.8,5h-1.8l1.3-7.3c0,0,1.1,0.2,2.9,0.2h20.7
			c1.8,0,3.1-0.2,3.1-0.2l-1.3,7.3h-1.8c0.1-4.2-1.3-5-4.6-5h-3.5l-0.6,0.6v20.1c0,1.5-0.3,2.7-0.3,2.7l4.9,0.5l-0.2,1.5l-12.8,0.3
			V94.9z"/>
		<path class="st0" d="M173.2,94.9c2.2-0.2,3.4-1.5,3.4-3.4V73.9c0-2.5,0-3-3.5-3.8v-1.3h4c4.4,0,5.5-0.2,5.5-0.2l0.2,0.2
			c0,0-1.4,1.9-1.4,6.3v6H196l0.6-0.5v-6.7c0-2.5,0-3-3.8-3.8v-1.3h4.3c4.4,0,5.5-0.2,5.5-0.2l0.2,0.2c0,0-1.4,1.9-1.4,6.3v16.3
			c0,1.5-0.2,2.7-0.2,2.7l4.3,0.5l-0.2,1.4l-12.5,0.3v-1.7c2.3-0.2,3.7-1.5,3.7-3.4v-8.1h-14.5l-0.6,0.6v7.5c0,1.5-0.2,2.7-0.2,2.7
			l4.3,0.5l-0.2,1.4l-12.2,0.3V94.9z"/>
		<path class="st0" d="M221.3,94.9c2.2-0.2,3.4-1.5,3.4-3.4V73.2c0-1.9-0.6-2.3-3.7-3.1v-1.3h18.5c1.8,0,3.3-0.2,3.3-0.2l-1.4,7.2
			h-1.8c0.2-4.3-1.2-5-4.6-5h-4.7l-0.6,0.5v9.9h7.2l0.3-2.3l2-0.3v7.8h-2.5v-3.1h-6.5l-0.6,0.6v8c0,1.3-0.2,2.3-0.2,2.3h6.1
			c3.7,0,4.2-0.6,6.3-4.9h1.8l-1.6,7h-13.4c-2.6,0-7.3,0.2-7.3,0.2V94.9z"/>
	</g>
	<g>
		<path class="st0" d="M130.3,159.6h50c51.9,0,86.6,38.8,86.6,90c0,50.5-35.7,89.5-86.9,89.5h-49.7V159.6z M165.3,308.6h5.7
			c43.1,0,59.7-23.8,59.7-59.3c0-39-20-59.3-59.7-59.3h-5.7V308.6z"/>
		<path class="st0" d="M302.2,159.6h35v100.4c0,22.1,1.9,53.3,31.7,53.3s31.7-31.2,31.7-53.3V159.6h35V267
			c0,43.8-18.6,76.9-66.6,76.9s-66.6-33.1-66.6-76.9V159.6z"/>
		<path class="st0" d="M600.7,339.1h-42.4l-43.6-72.4h-0.5v72.4h-35V159.6h47.4c35.5,0,60,15.7,60,54c0,22.9-12.6,45.7-36.7,49.7
			L600.7,339.1z M514.3,242.2h4.5c19.3,0,32.8-5.7,32.8-27.6c0-22.1-14-26.4-32.6-26.4h-4.8V242.2z"/>
		<path class="st0" d="M715.6,199.1c-6.7-9-15.2-14.8-26.9-14.8c-11.2,0-21.9,8.6-21.9,20.2c0,30.2,71.2,17.6,71.2,77.8
			c0,35.9-22.4,61.4-59,61.4c-24.8,0-42.8-14.3-55.2-35l22.6-22.1c4.8,13.8,17.4,26.2,32.4,26.2c14.3,0,23.1-12.1,23.1-25.9
			c0-18.6-17.1-23.8-31.2-29.3c-23.1-9.5-40-21.2-40-49c0-29.8,22.1-53.8,52.4-53.8c15.9,0,38.1,7.9,49,20L715.6,199.1z"/>
		<path class="st0" d="M833.7,339.1h-35v-149h-36.2v-30.5h107.4v30.5h-36.2V339.1z"/>
	</g>
</g>
</svg>
