<?xml version="1.0" encoding="UTF-8"?>
<!-- Generator: Adobe Illustrator 24.3.0, SVG Export Plug-In . SVG Version: 6.00 Build 0)  -->
<svg xmlns="http://www.w3.org/2000/svg" xmlns:xlink="http://www.w3.org/1999/xlink" version="1.1" id="Layer_1" x="0px" y="0px" viewBox="0 0 1133.9 1133.9" style="enable-background:new 0 0 1133.9 1133.9;" xml:space="preserve">
<style type="text/css">
	.st0{fill:#323333;}
</style>
<path class="st0" d="M922.3,511.9c-3.6-2-7.5-3.1-11-4.1c-2.2-0.6-4.2-1.2-5.8-1.8c47.5-57.6,7.3-273.7-6.3-339.1  c-0.8-3.9-3.5-7-7.2-8.4c-1.3-0.5-2.6-0.7-3.9-0.7c-2.5,0-4.9,0.8-6.9,2.4c-10.5,8.1-26.8,13-44,18.2c-19.5,5.9-39.6,11.9-58,23.7  c-17.9,11.5-31.2,26.5-44,41c-14,15.9-27.3,30.9-43.2,35.2c-12.4,3.3-24.8,4-36.8,4.7c-23.7,1.3-48.1,2.6-70.2,24.6  c-1.4-0.6-2.9-1.2-4.3-1.7l-0.3-0.1c-10.1-4.2-21.6-8.9-37-8.9c-2.2,0-4.5,0.1-6.7,0.3c1.5-3.7,2.3-8.9-0.4-16.3l-1.2-3.2l-3.1-1.5  c-38.5-18.8-86.9-27.5-152.1-27.5c-46.7,0-97.8,4.3-152,8.9l-12.2,1c-8.5,0.7-15,8-14.7,16.5c5.8,169,26.7,520,29,559.4  c0.4,7.2,5.3,13.2,12.1,15.1c10.5,2.9,21.4,4.3,31.9,5.7c11.1,1.5,21.5,2.9,30.5,5.7c9.6,3,21.5,25.1,28.9,45.5  c2.2,5.9,7.2,10.3,13.4,11.7c9.3,2.1,19.4,3.2,29.1,4.3c13.5,1.5,27.4,3.1,38.3,7.2l0.3,0.1c0.7,0.3,1.5,0.6,2.2,0.9  c3.2,1.3,8.4,5.7,14.1,11.6c2.6,2.7,6.3,4.3,10,4.3c2.8,0,5.4-0.8,7.7-2.4c8.9-6.1,21.6-6.9,33.9-6.9c3.8,0,7.6,0.1,11.5,0.2  c4,0.1,8,0.2,11.9,0.2c22,0,44.1-2.9,59-21.7c15.6,26.7,39,45.8,71.4,58l2,0.7c2.5,0.9,5,1.3,7.7,1.3c3.2,0,6.4-0.7,9.3-2  c28.7-13.2,34.7-45.6,40-74.2c4.6-25.1,8.7-47.1,24.3-58.2c0.2,0.7,0.3,1.4,0.4,1.8c1.1,5.6,2.5,13.4,9.5,17.1  c2.2,1.2,4.8,1.8,7.5,1.8c2.6,0,5.5-0.6,8.6-1.7l3.4-1.2l1.5-3.3c5.5-12.2,9.6-25.4,13.6-38.2c8.1-26,16.5-52.9,36.1-67.4  c2.1-1.5,4.5-2.5,6.9-2.7c32.7-2.9,49.1-21,63.5-36.9c8.3-9.2,16.2-17.9,26.8-23.8c7.8-4.3,12.1-12.7,11-21.3  c-4.7-35.9,3.9-61.3,12.1-85.9c4.9-14.5,9.9-29.5,12.6-46.7l0-0.2l0.1-0.7l0-0.2C933.3,520.6,927.3,514.8,922.3,511.9z M891.1,668  c0.2,1.5-0.7,3.1-2.3,4c-13.1,7.3-22.3,17.5-31.2,27.3c-14.1,15.5-26.3,29-52.3,31.3c-5.5,0.5-10.9,2.6-15.6,6  c-24.2,17.9-33.5,47.5-42.4,76.2c-3.1,10.1-6.4,20.4-10.2,30c-0.2-0.9-0.3-1.8-0.5-2.5c-1.2-6.2-2.9-15.6-12.5-18.3l-3-0.9l-2.9,1.3  c-28.9,13.1-34.9,45.6-40.2,74.3c-5.2,28-9.6,52.1-30.2,61.6c-0.6,0.3-1.4,0.5-2.1,0.5c-0.6,0-1.2-0.1-1.8-0.3  c-0.6-0.2-1.1-0.4-1.7-0.6c-31.7-12-53.6-31.3-67-58.8c-1.8-3.8-5.5-6.2-9.7-6.3l-0.3,0c-4.1,0-7.8,2.2-9.7,5.9  c-9.6,18.2-26.3,21.8-50.1,21.8c-3.7,0-7.4-0.1-11.3-0.2c-3.9-0.1-7.7-0.2-11.6-0.2c-13.5,0-28.9,1-41.3,8.3  c-6.8-6.8-12.8-11.4-17.9-13.5c-0.9-0.4-1.8-0.8-2.9-1.1l-0.4-0.2c-12.8-4.8-27.8-6.5-42.3-8.1c-9.3-1.1-18.8-2.2-27.3-4  c-0.5-0.1-0.8-0.4-0.9-0.7c-6.7-18.3-20.7-50-39.9-56.1c-10.5-3.3-21.6-4.8-33.5-6.4c-9.7-1.3-19.8-2.6-29.1-5.1  c-2.5-41.2-23.1-388.5-29-557.4l11.1-0.9c53.7-4.5,104.5-8.8,150.5-8.8c60.5,0,105.5,7.7,141,24.1c0,0.8-0.4,1.5-1.3,2.9  c-2.9,4.9-2.8,10.8,0.4,15.6c2.7,4.1,7.3,6.6,12.3,6.6c0.7,0,1.4,0,2.1-0.1c3.2-0.4,6.2-0.7,9.2-0.7c11.8,0,20.4,3.5,30.3,7.6  c1.8,0.8,3.7,1.5,5.6,2.3c1.9,0.7,3.8,1.1,5.8,1.1c4.3,0,8.5-1.8,11.6-4.9c17.6-17.7,36.9-18.7,59.4-20c12.9-0.7,26.2-1.4,40.4-5.2  c20.9-5.6,35.9-22.5,51.7-40.5c12-13.6,24.4-27.7,40.3-37.9c16.4-10.5,35.3-16.2,53.7-21.7c15.3-4.6,29.9-9,41.9-15.9  c5.3,26.6,16.6,87.3,22.7,150.1c8.4,87.2,2.9,146.5-15.4,166.8c-3.1,3.5-4.6,8.1-3.9,12.8c0.6,4.6,3.3,8.6,7.2,11l0.4,0.2  c3.8,2.3,8,3.5,11.8,4.5c2.7,0.7,5.3,1.5,7,2.4c1,0.5,2,1.1,2,4.2c-2.4,15.5-7.2,29.6-11.8,43.2C895.1,600.8,885.9,628.2,891.1,668z  "></path>
</svg>
