<?xml version="1.0" encoding="utf-8"?>
<!-- Generator: Adobe Illustrator 26.1.0, SVG Export Plug-In . SVG Version: 6.00 Build 0)  -->
<svg version="1.1" id="Layer_1" xmlns="http://www.w3.org/2000/svg" xmlns:xlink="http://www.w3.org/1999/xlink" x="0px" y="0px"
	 viewBox="0 0 500 500" style="enable-background:new 0 0 500 500;" xml:space="preserve">
<style type="text/css">
	.st0{fill:#081B33;}
</style>
<g>
	<g>
		<polygon class="st0" points="300.9,389.5 136.7,389.5 136.7,104.9 165.6,104.9 165.6,72.2 104.9,72.2 104.9,422.3 300.9,422.3 		
			"/>
		<polygon class="st0" points="195,72.2 195,104.9 358.8,104.9 358.8,389.5 329.2,389.5 329.2,422.3 390.7,422.3 390.7,72.2 		"/>
	</g>
	<g>
		<path class="st0" d="M183.4,162.1h47.4c49.2,0,82.2,36.8,82.2,85.4c0,47.9-33.9,84.9-82.4,84.9h-47.2V162.1z M216.6,303.5h5.4
			c40.9,0,56.7-22.6,56.7-56.2c0-37-19-56.2-56.7-56.2h-5.4V303.5z"/>
	</g>
</g>
</svg>
