<?xml version="1.0" encoding="utf-8"?>
<!-- Generator: Adobe Illustrator 26.1.0, SVG Export Plug-In . SVG Version: 6.00 Build 0)  -->
<svg version="1.1" id="Layer_1" xmlns="http://www.w3.org/2000/svg" xmlns:xlink="http://www.w3.org/1999/xlink" x="0px" y="0px"
	 viewBox="0 0 549.7 507.7" style="enable-background:new 0 0 549.7 507.7;" xml:space="preserve">
<style type="text/css">
	.st0{fill:#E54A35;}
</style>
<path id="Path_73" class="st0" d="M308.4,291.4c0,54.3,23.1,111.3,77.4,169.6L512,393.1v-62.4c-67.9-33.9-95-69.2-95-107.2
	c0-44.8,38-92.3,92.3-145.2l-36.6-43.4C384.4,104.1,308.4,192.3,308.4,291.4z M50.6,291.4c0,54.3,23.1,111.3,77.4,169.6l126.2-67.9
	v-62.4c-67.9-33.9-95-69.2-95-107.2c0-44.8,38-92.3,92.3-145.2l-36.6-43.4C126.6,104.1,50.5,192.3,50.6,291.4L50.6,291.4z"/>
</svg>
